<?xml version="1.0" encoding="UTF-8"?><svg id="Layer_1" xmlns="http://www.w3.org/2000/svg" viewBox="0 0 105 105"><path d="M60,47h-15c-.28,0-.5.22-.5.5v10c0,.28.22.5.5.5h15c.28,0,.5-.22.5-.5v-10c0-.28-.22-.5-.5-.5ZM45,46c-.83,0-1.5.67-1.5,1.5v10c0,.83.67,1.5,1.5,1.5h15c.83,0,1.5-.67,1.5-1.5v-10c0-.83-.67-1.5-1.5-1.5h-15Z" style="fill:#000; fill-rule:evenodd; stroke-width:0px;"/><path d="M60,27h-15c-.28,0-.5.22-.5.5v10c0,.28.22.5.5.5h15c.28,0,.5-.22.5-.5v-10c0-.28-.22-.5-.5-.5ZM45,26c-.83,0-1.5.67-1.5,1.5v10c0,.83.67,1.5,1.5,1.5h15c.83,0,1.5-.67,1.5-1.5v-10c0-.83-.67-1.5-1.5-1.5h-15Z" style="fill:#000; fill-rule:evenodd; stroke-width:0px;"/><path d="M60,67h-15c-.28,0-.5.22-.5.5v10c0,.28.22.5.5.5h15c.28,0,.5-.22.5-.5v-10c0-.28-.22-.5-.5-.5ZM45,66c-.83,0-1.5.67-1.5,1.5v10c0,.83.67,1.5,1.5,1.5h15c.83,0,1.5-.67,1.5-1.5v-10c0-.83-.67-1.5-1.5-1.5h-15Z" style="fill:#000; fill-rule:evenodd; stroke-width:0px;"/><path d="M24,37h-15c-.28,0-.5.22-.5.5v10c0,.28.22.5.5.5h15c.28,0,.5-.22.5-.5v-10c0-.28-.22-.5-.5-.5ZM9,36c-.83,0-1.5.67-1.5,1.5v10c0,.83.67,1.5,1.5,1.5h15c.83,0,1.5-.67,1.5-1.5v-10c0-.83-.67-1.5-1.5-1.5h-15Z" style="fill:#000; fill-rule:evenodd; opacity:.5; stroke-width:0px;"/><path d="M24,17h-15c-.28,0-.5.22-.5.5v10c0,.28.22.5.5.5h15c.28,0,.5-.22.5-.5v-10c0-.28-.22-.5-.5-.5ZM9,16c-.83,0-1.5.67-1.5,1.5v10c0,.83.67,1.5,1.5,1.5h15c.83,0,1.5-.67,1.5-1.5v-10c0-.83-.67-1.5-1.5-1.5h-15Z" style="fill:#000; fill-rule:evenodd; stroke-width:0px;"/><path d="M24,57h-15c-.28,0-.5.22-.5.5v10c0,.28.22.5.5.5h15c.28,0,.5-.22.5-.5v-10c0-.28-.22-.5-.5-.5ZM9,56c-.83,0-1.5.67-1.5,1.5v10c0,.83.67,1.5,1.5,1.5h15c.83,0,1.5-.67,1.5-1.5v-10c0-.83-.67-1.5-1.5-1.5h-15Z" style="fill:#000; fill-rule:evenodd; stroke-width:0px;"/><path d="M96,37h-15c-.28,0-.5.22-.5.5v10c0,.28.22.5.5.5h15c.28,0,.5-.22.5-.5v-10c0-.28-.22-.5-.5-.5ZM81,36c-.83,0-1.5.67-1.5,1.5v10c0,.83.67,1.5,1.5,1.5h15c.83,0,1.5-.67,1.5-1.5v-10c0-.83-.67-1.5-1.5-1.5h-15Z" style="fill:#000; fill-rule:evenodd; stroke-width:0px;"/><path d="M96,57h-15c-.28,0-.5.22-.5.5v10c0,.28.22.5.5.5h15c.28,0,.5-.22.5-.5v-10c0-.28-.22-.5-.5-.5ZM81,56c-.83,0-1.5.67-1.5,1.5v10c0,.83.67,1.5,1.5,1.5h15c.83,0,1.5-.67,1.5-1.5v-10c0-.83-.67-1.5-1.5-1.5h-15Z" style="fill:#000; fill-rule:evenodd; opacity:.5; stroke-width:0px;"/><path d="M24,77h-15c-.28,0-.5.22-.5.5v10c0,.28.22.5.5.5h15c.28,0,.5-.22.5-.5v-10c0-.28-.22-.5-.5-.5ZM9,76c-.83,0-1.5.67-1.5,1.5v10c0,.83.67,1.5,1.5,1.5h15c.83,0,1.5-.67,1.5-1.5v-10c0-.83-.67-1.5-1.5-1.5h-15Z" style="fill:#000; fill-rule:evenodd; stroke-width:0px;"/></svg>