<?xml version="1.0" encoding="UTF-8"?><svg id="Layer_1" xmlns="http://www.w3.org/2000/svg" viewBox="0 0 105 105"><path d="M101,47h-15c-.28,0-.5.22-.5.5v10c0,.28.22.5.5.5h15c.28,0,.5-.22.5-.5v-10c0-.28-.22-.5-.5-.5ZM86,46c-.83,0-1.5.67-1.5,1.5v10c0,.83.67,1.5,1.5,1.5h15c.83,0,1.5-.67,1.5-1.5v-10c0-.83-.67-1.5-1.5-1.5h-15Z" style="fill:#000; fill-rule:evenodd; stroke-width:0px;"/><path d="M60,27h-15c-.28,0-.5.22-.5.5v10c0,.28.22.5.5.5h15c.28,0,.5-.22.5-.5v-10c0-.28-.22-.5-.5-.5ZM45,26c-.83,0-1.5.67-1.5,1.5v10c0,.83.67,1.5,1.5,1.5h15c.83,0,1.5-.67,1.5-1.5v-10c0-.83-.67-1.5-1.5-1.5h-15Z" style="fill:#000; fill-rule:evenodd; stroke-width:0px;"/><path d="M60,67h-15c-.28,0-.5.22-.5.5v10c0,.28.22.5.5.5h15c.28,0,.5-.22.5-.5v-10c0-.28-.22-.5-.5-.5ZM45,66c-.83,0-1.5.67-1.5,1.5v10c0,.83.67,1.5,1.5,1.5h15c.83,0,1.5-.67,1.5-1.5v-10c0-.83-.67-1.5-1.5-1.5h-15Z" style="fill:#000; fill-rule:evenodd; stroke-width:0px;"/><path d="M19,37H4c-.28,0-.5.22-.5.5v10c0,.28.22.5.5.5h15c.28,0,.5-.22.5-.5v-10c0-.28-.22-.5-.5-.5ZM4,36c-.83,0-1.5.67-1.5,1.5v10c0,.83.67,1.5,1.5,1.5h15c.83,0,1.5-.67,1.5-1.5v-10c0-.83-.67-1.5-1.5-1.5H4Z" style="fill:#000; fill-rule:evenodd; stroke-width:0px;"/><path d="M19,17H4c-.28,0-.5.22-.5.5v10c0,.28.22.5.5.5h15c.28,0,.5-.22.5-.5v-10c0-.28-.22-.5-.5-.5ZM4,16c-.83,0-1.5.67-1.5,1.5v10c0,.83.67,1.5,1.5,1.5h15c.83,0,1.5-.67,1.5-1.5v-10c0-.83-.67-1.5-1.5-1.5H4Z" style="fill:#000; fill-rule:evenodd; stroke-width:0px;"/><path d="M19,57H4c-.28,0-.5.22-.5.5v10c0,.28.22.5.5.5h15c.28,0,.5-.22.5-.5v-10c0-.28-.22-.5-.5-.5ZM4,56c-.83,0-1.5.67-1.5,1.5v10c0,.83.67,1.5,1.5,1.5h15c.83,0,1.5-.67,1.5-1.5v-10c0-.83-.67-1.5-1.5-1.5H4Z" style="fill:#000; fill-rule:evenodd; stroke-width:0px;"/><path d="M19,77H4c-.28,0-.5.22-.5.5v10c0,.28.22.5.5.5h15c.28,0,.5-.22.5-.5v-10c0-.28-.22-.5-.5-.5ZM4,76c-.83,0-1.5.67-1.5,1.5v10c0,.83.67,1.5,1.5,1.5h15c.83,0,1.5-.67,1.5-1.5v-10c0-.83-.67-1.5-1.5-1.5H4Z" style="fill:#000; fill-rule:evenodd; stroke-width:0px;"/><path d="M73.5,72c0,.5-.63,1-1,1v-41c.5,0,1,.5,1,1v39Z" style="fill:#000; fill-rule:evenodd; stroke-width:0px;"/><path d="M32.5,42c0,.5-.63,1-1,1v-21c.5,0,1,.5,1,1v19Z" style="fill:#000; fill-rule:evenodd; stroke-width:0px;"/><rect x="73.5" y="52" width="11" height="1" style="fill:#000; stroke-width:0px;"/><rect x="61.5" y="72" width="11" height="1" style="fill:#000; stroke-width:0px;"/><rect x="61.5" y="32" width="11" height="1" style="fill:#000; stroke-width:0px;"/><rect x="32.5" y="32" width="11" height="1" style="fill:#000; stroke-width:0px;"/><rect x="20.5" y="22" width="11" height="1" style="fill:#000; stroke-width:0px;"/><rect x="20.5" y="42" width="11" height="1" style="fill:#000; stroke-width:0px;"/><path d="M32.5,82c0,.5-.63,1-1,1v-21c.5,0,1,.5,1,1v19Z" style="fill:#000; fill-rule:evenodd; stroke-width:0px;"/><rect x="32.5" y="72" width="11" height="1" style="fill:#000; stroke-width:0px;"/><rect x="20.5" y="62" width="11" height="1" style="fill:#000; stroke-width:0px;"/><rect x="20.5" y="82" width="11" height="1" style="fill:#000; stroke-width:0px;"/></svg>