<?xml version="1.0" encoding="UTF-8"?><svg xmlns="http://www.w3.org/2000/svg" viewBox="0 0 850.48 849.12"><g id="Ball"><path d="M25.02,322.72s-.54-7-1.54-11-2-11-2-11c0,0,11-69,80-150S273.48,7.72,399.48.72s242,37,330,127,121,191,121,302-53,224-119,290-173.38,126-273.69,129-153.31-11-230.31-48-122-101-122-101l-4-8c-1.61-3.22-3-6-7-8s-4-2-7-5c-8-8-45-55-68-131S-1.52,429.72,2.48,393.72s15.56-63.25,18.46-67c1.54-2,4.09-4,4.09-4Z" style="fill:#000; stroke-width:0px;"/></g><g id="Tape"><path d="M24.76,319.9s25.72-3.18,51.72-10.18,72.33-31.01,90-42c37-23,58-50,69-62s48-49,88-70,93-41,155-40,138,23,191,67,93,93,115,169,10.94,167.97-29,241c-35,64-107.03,130.9-191,153-76,20-128.13,13.42-188-5-52-16-72-36-123-44-63.99-10.04-106-3-120,0s-37.05,8.18-37.05,8.18c0,0,1.88,1.35,2.97,3.09s2.5,4.58,2.5,4.58c0,0,16.58-4.84,34.58-7.84s44-7,78-5,59,9,81,17,51.68,26.23,92,36c33,8,57,13,103,12s127-18,188-68c56.97-46.7,95.99-110.29,110-157,15-50,24.24-119.28,5.12-188.14s-54.01-116.98-103.12-163.86c-44-42-131-81-210-80-83,1.05-163.43,30.98-218,81-36,33-70,73-102,92-50.88,30.21-71,37-99,44s-38,7-38,7c0,0,.45,2.61.72,3.8s.55,4.38.55,4.38Z" style="fill:#fff; stroke-width:0px;"/></g></svg>