<?xml version="1.0" encoding="UTF-8"?><svg xmlns="http://www.w3.org/2000/svg" viewBox="0 0 961.76 928.89"><g id="Ball"><path d="M79.54,402.5s-.54-7-1.54-11-2-11-2-11c0,0,11-69,80-150S328,87.5,454,80.5s242,37,330,127,121,191,121,302-53,224-119,290-173.38,126-273.69,129-153.31-11-230.31-48-122-101-122-101l-4-8c-1.61-3.22-3-6-7-8s-4-2-7-5c-8-8-45-55-68-131s-21-118-17-154,15.56-63.25,18.46-67c1.54-2,4.09-4,4.09-4Z" style="fill:#c1d72e; stroke-width:0px;"/></g><g id="Tape"><path d="M79.28,399.68s25.72-3.18,51.72-10.18,72.33-31.01,90-42c37-23,58-50,69-62s48-49,88-70,93-41,155-40,138,23,191,67,93,93,115,169,10.94,167.97-29,241c-35,64-107.03,130.9-191,153-76,20-128.13,13.42-188-5-52-16-72-36-123-44-63.99-10.04-106-3-120,0s-37.05,8.18-37.05,8.18c0,0,1.88,1.35,2.97,3.09s2.5,4.58,2.5,4.58c0,0,16.58-4.84,34.58-7.84s44-7,78-5,59,9,81,17,51.68,26.23,92,36c33,8,57,13,103,12s127-18,188-68c56.97-46.7,95.99-110.29,110-157,15-50,24.24-119.28,5.12-188.14s-54.01-116.98-103.12-163.86c-44-42-131-81-210-80-83,1.05-163.43,30.98-218,81-36,33-70,73-102,92-50.88,30.21-71,37-99,44s-38,7-38,7c0,0,.45,2.61.72,3.8s.55,4.38.55,4.38Z" style="fill:#fff; stroke-width:0px;"/></g><g id="Est_1923"><path d="M365,655.5h27.66l-1.66,6h-19.4s-.7,2.32-1.6,5c-1,3-1,5-1,5h17l-2,6h-17s-1,2.4-2,5.2-1,4.8-1,4.8h18.41l-1.41,6h-27.79s3.66-10,6.22-19,5.56-19,5.56-19Z" style="fill:#000; stroke-width:0px;"/><path d="M414,665.5l-1,6s-4-2-7-2-5,2-5,4c0,3,8,6,8,12,0,5-8,9-14,9s-8-1-8-1v-6s4,1,8,1,6,0,6-3-7-5-7-12c0-5,5.05-8.34,9-9,6-1,11,1,11,1Z" style="fill:#000; stroke-width:0px;"/><path d="M432,658.5l-2,7h8l-2,6h-7s-3,9-4,12-1,5,2,5,4.2-.63,4.2-.63l-2.2,5.63s-3.32,1-6.66,1-6.34,0-6.34-5,6-18,6-18h-5l2-6h4l2-5,7-2Z" style="fill:#000; stroke-width:0px;"/><polygon points="436 686.5 443.98 686.5 441.68 693.5 434 693.5 436 686.5" style="fill:#000; stroke-width:0px;"/><path d="M494,656.5s-4.72,14-6.36,20-4.79,17-4.79,17h-8.85s3-7.98,5-15.49,4-15.51,4-15.51l-6,4,2-7,7-4,8,1Z" style="fill:#000; stroke-width:0px;"/><path d="M504.3,693.5h10.53s12.17-13,15.17-18,5-7,5-11-2.11-9-11.55-9-20.45,6-20.45,16c0,6,8,7,10,7h3l4-5h-5c-2,0-3-2-3-4s2-8,8-8,6,1,6,5c0,3-2,6-8,13s-13.7,14-13.7,14Z" style="fill:#000; stroke-width:0px;"/><path d="M559,693.5h-27s1-5,2-6,12-8,16-12,9-6.98,9-10.99-3-3.01-6-3.01-11,1-11,1l3.5-6.41s5.55-1.59,12.5-1.59,12,2,11,8-5,10-10,14-14,11-14,11h16l-2,6Z" style="fill:#000; stroke-width:0px;"/><path d="M581.09,655.5s8.26,0,11.59,0,10.33,0,10.33,6c0,4-1.45,6.45-4,9-4,4-6.96,3.5-6.96,3.5,0,0,2.96.5,4.96,2.5s1,7,0,9-5,8-17,9c-7.97.66-12-2-12-2l1-6s4,2,9,2,11-2,11-7-3-5-5-5h-7l2-6s3,1,8,0,6-3,6-6-1-4-6-4-9,1-9,1l3.09-6Z" style="fill:#000; stroke-width:0px;"/></g><g id="Layer_9"><path d="M0,336.5s10,4,21,9c13.03,5.92,17,9,17,9l4.78-9s-2.78-1-7.78-3l-10-4,4-10,4-10s5,2,9,4l8,4,4.52-8.65s-7.52-2.35-18.52-7.35-21-11-21-11l-4,9s7,3,9,4,7.26,3.18,7.26,3.18c0,0-2.26,3.82-4.26,8.82l-4,10s-6-2-8-3l-8-4-3,9Z" style="fill:#000; stroke-width:0px;"/><path d="M27.26,274.83l-4.26,7.67s11,7,16,10,11,8,17,8,11-7,13-10,5-10,5-14,0-7-6-11-27-17-27-17l-4,9s12.04,7.36,17.52,10.18,10.48,6.82,10.48,11.82-3,11-8,11-9-2-15-6-14.74-9.67-14.74-9.67Z" style="fill:#000; stroke-width:0px;"/><path d="M51,234.5s10,7,17,12,17,13,17,13l6-7s-9-6-16-11-14-11-14-11c0,0,3-5,5-7s3-3.36,5-3.18,6,2.18,6,7.18-4,9-4,9l12,2c6,1,14,3,14,3l6-9s-9-1-13-1-10-1-10-1c0,0,2-4,2-7s-4-12-12-12c-10,0-21,23-21,23Z" style="fill:#000; stroke-width:0px;"/><path d="M85,187.5l-6,7s12,10,16,14l16,16s4-6,9-12,10-11,10-11l-6-5s-3.06,6-6.03,9.5-5.62,5.5-5.62,5.5c0,0-6.35-5-14.35-12s-13-12-13-12Z" style="fill:#000; stroke-width:0px;"/><path d="M112,156.5l-6,7,13,13c8,8,17,18,17,18l6.99-7s-9.99-9-15.99-15-15-16-15-16Z" style="fill:#000; stroke-width:0px;"/><path d="M124.49,144.36s6.51,6.14,13.51,15.14l14,18,7-6s-5-5-12-13-9-11-9-11c0,0,10,3,17,5s19,6,19,6l8-8s-9-10-15-18-12-15-12-15l-6,5s6,8,10,13,10,13,10,13c0,0-10-4-19-7s-17-5-17-5l-8.51,7.86Z" style="fill:#000; stroke-width:0px;"/><path d="M198,107.5l6-4c3-2,7-5,7-5,0,0,3.57,5,6.29,9s7.15,10,7.15,10c0,0-7.44,9-13.44,13s-11,5-16,5-11-3-15-9-4-11-4-16,2-13,11-19c6-4,12.72-6.76,12.72-6.76l4.28,5.76s-9,4-13,7-7,7-7,14,6,15,14,16,16-9,16-9l-6-9-6,4-4-6Z" style="fill:#000; stroke-width:0px;"/><path d="M216,73.5l9-5s3,7,4,9,3.99,7.24,3.99,7.24c0,0,5.37-2.69,9.19-4.97s8.82-5.28,8.82-5.28c0,0-3-7-4-9s-4-7-4-7l8-4.27s4,7.27,9,17.27,11,21,11,21l-8,5-5-10c-1-2-4-7-4-7,0,0-4,2-9,5s-9,5-9,5c0,0,1.49,4,3.24,7s4.76,10,4.76,10l-8,5s-5-12-10-21l-10-18Z" style="fill:#000; stroke-width:0px;"/><path d="M282,40.5l10-4s6,7,14,16,17,18,17,18l-10,4s-3-5-5-7-5.5-5.48-5.5-5.48c0,0-4.5,2.48-7.5,3.48s-7,3-7,3v8c0,3,.14,8.24.14,8.24l-9.14,3.76s1.45-16,1.22-26,1.78-22,1.78-22ZM288,61.5l11-5-10-11-1,16Z" style="fill:#000; stroke-width:0px;"/><path d="M322,24.5l12-3s4.61,7.57,8,13c5,8,9,15,9,15,0,0,1-9,2-19,.8-7.96,1-15,1-15l12-3s3,14,6,22,5.5,19.73,5.5,19.73l-8.5,2.27s-2-9-4-16-4-16-4-16c0,0-2,11-2,19s-1,16-1,16l-8.25,2s-6.07-10-9.91-16-8.84-13-8.84-13c0,0,2,10,4,17s4,16,4,16l-8,2s-1.34-12-3.67-22-5.33-21-5.33-21Z" style="fill:#000; stroke-width:0px;"/><path d="M419,47.5l-9,1s0-11-1-23-3-20-3-20c0,0,6-.89,13-1.95s8.04-1.45,10-1.05c5,1,9,5,9,12s-5,13-10,14-8,0-8,0l-1-6s4,1,6,0,5-4,5-7-3-5.64-7.5-5.82-6.5.82-6.5.82c0,0,0,3,1,16s2,21,2,21Z" style="fill:#000; stroke-width:0px;"/><path d="M467,.5l10.71-.5s4.29,12.5,7.29,20.5,9,23,9,23h-9.39l-5.61-15.44-15-.56-8,17h-10.07s6.12-11.5,10.6-22.25,10.48-21.75,10.48-21.75ZM465.97,21.5h11.03l-5-14-6.03,14Z" style="fill:#000; stroke-width:0px;"/><path d="M504,43.5s1.89-14,2.95-22,2.04-21.5,2.04-21.5c0,0,7.01.5,15.01,1.5s16,2,16,11-4,11-7,12-6,1-6,1c0,0,2,5,4,9l6,12h-10.52s-1.48-4.66-4.48-13.33-4.2-11.67-4.2-11.67h6.51c2.69,0,7.35-3,7.02-7s-2.33-5-7.33-6-7.1-1-7.1-1c0,0-1.9,10-2.9,19s-.93,18-.93,18l-9.07-1Z" style="fill:#000; stroke-width:0px;"/><path d="M557,5.5l10,2-5,19.54,20-17.54,10,2-20,18,13,25-12-2-10-24-2,1-4,20.52-10-2.52s4-10,6-20,4-22,4-22Z" style="fill:#000; stroke-width:0px;"/><path d="M625,20.5s9,3,16,5,18,5,18,5l-3,8-12-5s-5,11-7,17l-6,18-10-4s4-8,8-19,6-15,6-15l-13-4,3-6Z" style="fill:#000; stroke-width:0px;"/><path d="M671,35.5s9,4,14,6,14,6,14,6l-3,7s-7-3.3-11-5.15-8-3.85-8-3.85l-5,10s5,3,8,4,9,4,9,4l-3,6s-7-3-10-4-7-3-7-3l-5,10s6,4,9,5,11,4,11,4l-4,6s-10-5-15-7-13-5-13-5c0,0,4-7,9-18l10-22Z" style="fill:#000; stroke-width:0px;"/><path d="M715,55.5l9.32,6,.68,38,18-29,7,5s-5,8-12,19-11,18-11,18l-10-6-1-38-17,28.53-7-4.53s6-9,12-19,11-18,11-18Z" style="fill:#000; stroke-width:0px;"/><path d="M766,85.5l9,7-4,37,21-25,7,5s-8,9-16,19-12,15-12,15l-8-7,2-37-19,25-7-5s6-7,13-16,14-18,14-18Z" style="fill:#000; stroke-width:0px;"/><path d="M812,120.5l7,6s-8,9-15,16-14,17-14,17l-8-7s7-7,14-15,16-17,16-17Z" style="fill:#000; stroke-width:0px;"/><path d="M842,158.5l5-5s-7-13-17-13-11,8.28-11,12.64,1.51,11.32,1.26,14.34-2.26,5.02-4.26,5.02-7-4-9-7-3-6-3-6l-5,6.56s4,5.44,7,8.44,6,6,12,6,9.41-5.06,10-8c1-5,.24-11.05-1-16-1-4,1-7,5-7s5,1,7,4,3,5,3,5Z" style="fill:#000; stroke-width:0px;"/><path d="M889,213.5l6-5s-2-5-7-10-9-9-18-9-24,8-24,21,14,24,14,24l7-4s-12-6-12-17,10-15,16-15,10,3,13,7,5,8,5,8Z" style="fill:#000; stroke-width:0px;"/><path d="M905,222.5l5,8s-6,3.23-15,8.62-17,10.38-17,10.38l11,16-6,3s-4-6-8-12-8-12-8-12c0,0,11-6,19-11s19-11,19-11Z" style="fill:#000; stroke-width:0px;"/><path d="M927,258.5l5,8s-4,1-16,7-15,6-15,12,5,12,10,12,30-13,30-13l4,8s-26,14-33,14c-10,0-20-14-19.36-24,.52-8.1,3.36-10,8.36-12s26-12,26-12Z" style="fill:#000; stroke-width:0px;"/><path d="M952,308.5s3,7,5,12c1.34,3.35,4.5,8.62,4.75,13.31s-5.75,9.69-10.75,9.69-9-4-9-4c0,0,1,3.79,0,5.89s-7,7.11-11,7.11-8-3-10-6-9-23-9-23c0,0,13-4,21-7s19-8,19-8ZM943,332.5c2,3,6,4,9,2s2-7,1-9-3-7-3-7l-11,5s2,6,4,9ZM933,325.5l-12.4,5s3.4,7,4.4,9,3,4.28,8,2.64,4.76-4.56,3.88-6.6-3.88-10.04-3.88-10.04Z" style="fill:#000; stroke-width:0px;"/></g><g id="HPTC_White_Shadow"><path d="M179,402.5h44.93l-2.93,11h7.65s-4.65,23-5.65,29-6,27-6,27c0,0,11.72.5,21.86.5h19.28s4.86-16.5,6.86-29.5,6.29-38,6.29-38l44.71,1-3,11h9s-12.87,52.43-19.44,84.72-20.56,103.28-20.56,103.28h-41.61l1.61-9h-10s5-22,8-37,7-32,7-32c0,0-7.74-.35-19.37-.35s-22.63.35-22.63.35c0,0-5,25-8,41s-7.03,37-7.03,37h-41.49l1.52-9h-11s17-67,22-96,18-95,18-95Z" style="fill:#fff; stroke-width:0px;"/><path d="M374,403.5h47.54c7.46,0,20.46,0,27.46,1s14,6,18,10,2,5,4,8,8,9.09,8,30.54-8,40.46-15,51.46-20,25-36,27-15.65,0-15.65,0l-.35-8-7-1-.91-16.22s-7.09,33.22-10.09,50.22-8.84,46-8.84,46l-42.16,1,2-9h-10s9-40,17-78,22-113,22-113ZM422,451.5c-3,0-7.22,1-7.22,1,0,0-1.78,8-2.78,13s-3,18-3,18c0,0,7,0,13-6s6-12,7-17.69,0-7.31,0-7.31c0,0-4-1-7-1Z" style="fill:#fff; stroke-width:0px;"/><path d="M523,404.5s44.68,0,56.84,0,61.76,0,61.76,0l-2.6,12h7.77s-3.77,13-4.77,20-4.33,22.93-4.33,22.93c0,0-13.71-2.15-20.67-2.93-9-1-16,0-16,0,0,0-8,33-13,59s-16,88-16,88h-42.33l2.33-9h-11s14-58,19-85,11-52,11-52h-13c-5,0-16,1-16,1l2-9c-.09-.37-3,0-5,0s-5,1-5,1c0,0,4-19,5-25s4-21,4-21Z" style="fill:#fff; stroke-width:0px;"/><path d="M797,408.5l-1,9,7,1s-2,12-3,21-3,23-3,23c0,0-10-8-31-8-31,0-55,35-55,75,0,21,9,24,28,24s34-7,34-7l-4,15,9-3s-4,15-7,26-5,19-5,19c0,0-17.96,5.19-38,5.19-48,0-69-40.19-69-74.19,0-79,43-133,100-133,17,0,38,7,38,7Z" style="fill:#fff; stroke-width:0px;"/></g><g id="HPTC_Black"><path d="M181,406.5h39.22s-6.22,21-8.22,32-6.59,33-6.59,33c0,0,19.59,1,28.59,1h27.07s4.93-20,6.93-36,5.33-30,5.33-30h39.06s-13.39,56-20.39,91-18,93-18,93h-38.46s5.46-25,8.46-39,8-38,8-38c0,0-12-1-27-1s-28,1-28,1c0,0-5,19-8,35s-8,42-8,42h-38.14s17.14-70,21.14-95,17-89,17-89Z" style="fill:#000; stroke-width:0px;"/><path d="M376.48,406.5h63.83c5.69,0,29.69-1.01,29.69,33,0,63-41.06,79.9-51,81-9,1-11.88,0-11.88,0l-2.12-34s8,1,14-3,15-13,14-27-6-15-14-16-12,1-12,1c0,0-12,50-16,75s-14.52,75.44-14.52,75.44l-38.3-1.44s13.03-51.57,20.43-91.28,17.87-92.72,17.87-92.72Z" style="fill:#000; stroke-width:0px;"/><path d="M525.84,406.5s40.16,1,52.16,1,59.67-.5,59.67-.5c0,0-2.67,10.5-3.67,17.5s-4,24-4,24c0,0-12-2-24-3-8.97-.75-14,0-14,0,0,0-8,42-14,71s-14.37,75.44-14.37,75.44h-39.06s12.44-46.44,17.44-73.44,14-74,14-74c0,0-9,0-20,1-5.98.54-19,1-19,1,0,0,4-16,5-21s3.84-19,3.84-19Z" style="fill:#000; stroke-width:0px;"/><path d="M794,410.5s-2,13-3,19-2,20-2,20c0,0-11-7-29-7-24,0-57,22-57,76,0,31,14,38,37,38s29-5,29-5l-6,21c-2,7-5.33,19.44-5.33,19.44,0,0-17.67,5.56-34.67,5.56-47,0-61-28.99-61-65,0-62,34-128,97-128,24,0,35,6,35,6Z" style="fill:#000; stroke-width:0px;"/></g></svg>