<?xml version="1.0" encoding="UTF-8"?><svg xmlns="http://www.w3.org/2000/svg" viewBox="0 0 850.48 849.12"><g id="Ball"><path d="M25.02,322.72s-.54-7-1.54-11-2-11-2-11c0,0,11-69,80-150S273.48,7.72,399.48.72s242,37,330,127,121,191,121,302-53,224-119,290-173.38,126-273.69,129-153.31-11-230.31-48-122-101-122-101l-4-8c-1.61-3.22-3-6-7-8s-4-2-7-5c-8-8-45-55-68-131S-1.52,429.72,2.48,393.72s15.56-63.25,18.46-67c1.54-2,4.09-4,4.09-4Z" style="fill:#c1d72e; stroke-width:0px;"/></g><g id="Tape"><path d="M24.76,319.9s25.72-3.18,51.72-10.18,72.33-31.01,90-42c37-23,58-50,69-62s48-49,88-70,93-41,155-40,138,23,191,67,93,93,115,169,10.94,167.97-29,241c-35,64-107.03,130.9-191,153-76,20-128.13,13.42-188-5-52-16-72-36-123-44-63.99-10.04-106-3-120,0s-37.05,8.18-37.05,8.18c0,0,1.88,1.35,2.97,3.09s2.5,4.58,2.5,4.58c0,0,16.58-4.84,34.58-7.84s44-7,78-5,59,9,81,17,51.68,26.23,92,36c33,8,57,13,103,12s127-18,188-68c56.97-46.7,95.99-110.29,110-157,15-50,24.24-119.28,5.12-188.14s-54.01-116.98-103.12-163.86c-44-42-131-81-210-80-83,1.05-163.43,30.98-218,81-36,33-70,73-102,92-50.88,30.21-71,37-99,44s-38,7-38,7c0,0,.45,2.61.72,3.8s.55,4.38.55,4.38Z" style="fill:#fff; stroke-width:0px;"/></g><g id="HPTC_White_Shadow"><path d="M262.92,87.22h142.01l-9.25,34.77h24.18s-14.69,72.7-17.86,91.67c-3.16,18.97-18.97,85.34-18.97,85.34,0,0,37.06,1.58,69.1,1.58h60.93s15.37-52.15,21.69-93.25c6.32-41.09,19.87-120.11,19.87-120.11l141.33,3.16-9.48,34.77h28.45s-40.69,165.74-61.44,267.78c-20.75,102.05-65,326.47-65,326.47h-131.51l5.08-28.45h-31.61s15.8-69.54,25.29-116.95c9.48-47.41,22.13-101.15,22.13-101.15,0,0-24.48-1.11-61.23-1.11s-71.52,1.11-71.52,1.11c0,0-15.8,79.02-25.29,129.6-9.48,50.57-22.23,116.95-22.23,116.95h-131.14l4.81-28.45h-34.77s53.74-211.78,69.54-303.45c15.8-91.67,56.9-300.29,56.9-300.29Z" style="fill:#fff; stroke-width:0px;"/></g><g id="HPTC_Black"><path d="M269.24,99.87h123.98s-19.67,66.38-25.99,101.15c-6.32,34.77-20.81,104.31-20.81,104.31,0,0,61.91,3.16,90.35,3.16h85.58s15.57-63.22,21.89-113.79c6.32-50.57,16.85-94.83,16.85-94.83h123.48s-42.34,177.01-64.46,287.64c-22.13,110.63-56.9,293.96-56.9,293.96h-121.56s17.25-79.02,26.73-123.28c9.48-44.25,25.29-120.11,25.29-120.11,0,0-37.93-3.16-85.34-3.16s-88.51,3.16-88.51,3.16c0,0-15.8,60.06-25.29,110.63-9.48,50.57-25.29,132.76-25.29,132.76h-120.55s54.17-221.26,66.82-300.29c12.64-79.02,53.74-281.32,53.74-281.32Z" style="fill:#000; stroke-width:0px;"/></g></svg>